<svg width="650" height="584" viewBox="0 0 650 584" fill="none" xmlns="http://www.w3.org/2000/svg">
<path d="M594.938 54.9811C577.67 37.4726 557.16 23.6211 534.63 14.1816C512.1 4.74202 487.981 -0.0597096 463.684 0.000560389C439.355 -0.033759 415.359 4.78555 392.982 14.3043C370.636 23.7607 350.392 37.6566 333.476 55.178L323.178 66.1249L312.632 55.5858C277.693 20.5946 230.637 0.949396 181.763 1.00318C132.889 1.05697 86.1792 20.7255 51.9444 55.7938C18.1889 91.0731 -0.487883 138.51 0.00969307 187.853C0.507269 237.196 20.0743 284.615 54.5163 319.819L309.106 575.729C314.411 581.014 321.539 583.988 328.946 584C336.353 584.012 343.403 581.006 348.59 575.729L598.22 319.456C631.992 284.067 650.576 236.503 649.986 187.033C649.35 137.578 629.581 90.1721 594.907 55.0434L594.938 54.9811Z" fill="white"/>
</svg>
